<svg width="56" height="56" viewBox="0 0 56 56" fill="none" xmlns="http://www.w3.org/2000/svg">
<path d="M28.35 38.5V43.4" stroke="white" stroke-linecap="round" stroke-linejoin="round"/>
<path d="M16.6834 51.3333H40.0167V49C40.0167 46.4333 37.9167 44.3333 35.3501 44.3333H21.3501C18.7834 44.3333 16.6834 46.4333 16.6834 49V51.3333V51.3333Z" stroke="white" stroke-miterlimit="10"/>
<path d="M14.35 51.3333H42.35" stroke="white" stroke-linecap="round" stroke-linejoin="round"/>
<path d="M28 37.3333C18.97 37.3333 11.6667 30.03 11.6667 21V14C11.6667 8.84332 15.8434 4.66666 21 4.66666H35C40.1567 4.66666 44.3334 8.84332 44.3334 14V21C44.3334 30.03 37.03 37.3333 28 37.3333Z" stroke="white" stroke-linecap="round" stroke-linejoin="round"/>
<path d="M12.7633 27.1833C11.0133 26.6233 9.47328 25.5966 8.25995 24.3833C6.15995 22.0499 4.75995 19.2499 4.75995 15.9833C4.75995 12.7166 7.32662 10.1499 10.5933 10.1499H12.1099C11.6433 11.2233 11.4099 12.4133 11.4099 13.6499V20.6499C11.4099 22.9833 11.8999 25.1766 12.7633 27.1833Z" stroke="white" stroke-linecap="round" stroke-linejoin="round"/>
<path d="M43.2368 27.1833C44.9868 26.6233 46.5268 25.5966 47.7401 24.3833C49.8401 22.0499 51.2401 19.2499 51.2401 15.9833C51.2401 12.7166 48.6734 10.1499 45.4068 10.1499H43.8901C44.3568 11.2233 44.5901 12.4133 44.5901 13.6499V20.6499C44.5901 22.9833 44.1001 25.1766 43.2368 27.1833Z" stroke="white" stroke-linecap="round" stroke-linejoin="round"/>
</svg>
