<svg width="49" height="49" viewBox="0 0 49 49" fill="none" xmlns="http://www.w3.org/2000/svg">
<path fill-rule="evenodd" clip-rule="evenodd" d="M17.2783 5.5205V7.08179L17.4826 7.28607C17.7233 7.51954 18.11 7.60709 18.8031 7.56331L19.2481 7.54142V11.0945V14.6548H14.6956H10.1357L9.98981 14.8518C9.8366 15.0415 9.8366 15.0707 9.85119 19.5648L9.87307 24.0809L10.0482 24.2195C10.2087 24.3509 10.3984 24.3582 14.7321 24.3582H19.2481V29.8592V35.3602L18.3799 35.3894C17.0667 35.4258 16.9864 35.5353 16.9864 37.3811V38.5849H16.2423C14.9801 38.5849 14.8415 38.7673 14.8853 40.3578C14.8999 40.8685 14.8926 41.2843 14.878 41.2843C14.8415 41.2843 13.6377 40.2556 13.5939 40.19C13.5793 40.1608 13.6669 39.7449 13.7909 39.2707C13.9952 38.4755 14.0171 38.3004 14.0244 37.1987C14.0244 36.1627 14.0025 35.9074 13.8566 35.3821C13.5355 34.1856 13.0394 33.3247 12.1129 32.3616C11.8065 32.0552 11.5438 31.7998 11.5146 31.7998C11.4198 31.7998 10.7048 32.9672 10.4932 33.4633C10.1576 34.2512 10.0482 34.7473 9.9971 35.7031L9.94603 36.5713L9.39885 35.8855C9.09972 35.5061 8.59632 34.8203 8.28989 34.3607L7.72812 33.5143L7.90322 33.2955C8.67657 32.347 9.25293 31.2381 9.51558 30.1948C9.73445 29.3339 9.69798 27.882 9.44262 27.0211C9.23834 26.3353 8.64738 25.0294 8.40662 24.7375L8.26801 24.5624L7.77189 25.0148C7.50195 25.2628 7.12987 25.6641 6.94747 25.8976C6.5608 26.4083 6.0355 27.3713 5.8604 27.9112C5.79474 28.1228 5.72908 28.2979 5.71449 28.2979C5.61964 28.2979 5.15271 25.7444 5.05787 24.6865L5.0068 24.1758L5.66342 23.7599C7.2466 22.7385 8.30448 21.3669 8.71305 19.7983C8.88085 19.1563 8.90274 17.2156 8.74953 16.4568C8.63279 15.8878 8.60361 15.8732 7.96888 16.1504C7.2466 16.4714 6.3857 17.0989 5.73638 17.7847C5.39347 18.1422 5.12353 18.3829 5.13812 18.3173C5.15271 18.2516 5.23297 17.7993 5.31322 17.3177C5.42995 16.6174 5.89688 14.5964 6.08657 13.9909C6.11576 13.8887 6.29815 13.8669 7.26849 13.8304C8.94651 13.7793 9.98251 13.4583 11.0404 12.6703C12.0764 11.9043 13.003 10.3941 13.4918 8.68686C13.6012 8.30018 13.5793 8.28559 12.9154 8.15427C12.2953 8.03753 11.0477 8.11049 10.34 8.30018C9.74175 8.46069 9.04136 8.75982 8.53065 9.08083C8.35555 9.19027 8.23882 9.23404 8.2753 9.17567C8.30449 9.11731 8.56713 8.70874 8.85896 8.271C9.304 7.5779 9.42074 7.45387 9.6615 7.36633C10.6975 7.00154 11.9961 6.17712 12.5944 5.49861C13.2948 4.70337 13.7617 3.64548 13.966 2.4125C14.09 1.65374 14.0681 0.55938 13.9295 0.18C13.8493 -0.0169868 13.8347 -0.0242844 13.4991 0.0267868C12.93 0.114334 12.0253 0.420757 11.3541 0.770954C10.0992 1.41298 9.39885 2.08419 8.81519 3.21503C8.36285 4.08323 8.23153 4.69608 8.23153 5.99472V7.08909L7.9251 7.5852C7.75001 7.85514 7.5895 8.08131 7.56032 8.08861C7.52384 8.08861 7.50195 7.89162 7.50195 7.65086C7.50195 7.08179 7.33415 6.25737 7.05691 5.50591C6.81615 4.83469 6.18871 3.76222 6.02091 3.72574C5.6926 3.66008 4.39395 5.12653 3.88325 6.13334C2.92751 8.03024 3.22663 10.2773 4.70767 12.3931L5.13812 13.006L4.8244 14.29C4.64931 14.9904 4.50339 15.5959 4.4888 15.6324C4.47421 15.6689 4.37936 15.4646 4.26263 15.1801C3.86866 14.1587 2.79618 12.7506 2.04472 12.2618C1.87692 12.1523 1.85503 12.1523 1.7237 12.3201C1.24948 12.9038 0.724185 14.1733 0.527199 15.2093C0.169707 17.1135 0.877396 19.0468 2.45328 20.4914C2.72322 20.7395 3.1099 21.0459 3.32148 21.1699L3.70086 21.4034L3.71545 22.133C3.71545 22.5342 3.74463 23.1835 3.77381 23.5775L3.81759 24.2925L3.60601 24.0153C3.20474 23.5046 2.43869 22.7896 1.89151 22.4321C1.25678 22.0162 0.600157 21.7025 0.498016 21.7682C0.381284 21.8411 0.147819 22.702 0.0529743 23.3878C-0.0564622 24.2049 0.00919971 25.3942 0.19889 26.131C0.687706 28.0133 2.19793 29.4652 4.45232 30.224L4.98491 30.4063L5.32781 31.2527C5.5175 31.7196 5.83122 32.3981 6.0355 32.7556C6.23249 33.1204 6.3784 33.4049 6.34922 33.3903C6.32004 33.3757 5.98443 33.2152 5.60505 33.0182C5.21108 32.8212 4.61283 32.5951 4.21156 32.5002C3.40903 32.2959 2.27089 32.1938 1.84773 32.2887C1.5559 32.3543 1.5559 32.3616 1.5632 32.6826C1.57779 33.0839 1.94258 34.1928 2.28548 34.8786C3.15367 36.6077 4.29181 37.5562 6.08657 38.0377C6.67023 38.1982 8.34826 38.2566 8.92462 38.1326L9.36237 38.0377L10.7121 39.3947C11.8794 40.562 14.0608 42.4444 14.4037 42.5757C14.6153 42.6559 14.4913 42.7216 13.9076 42.8456C12.4995 43.1447 10.537 43.8451 10.5808 44.0202C10.6099 44.137 11.5146 44.9541 12.2588 45.5378L12.8206 45.9682L12.3172 46.975C11.8283 47.96 11.5365 48.7333 11.6168 48.8646C11.6386 48.9011 11.9743 48.8354 12.3682 48.7114C16.2277 47.5441 21.2326 47.0042 26.3907 47.1939C30.1845 47.3325 32.6577 47.6754 35.7366 48.4852C36.437 48.6676 37.1082 48.8354 37.2249 48.8573C37.4292 48.8938 37.4365 48.8865 37.3854 48.6093C37.3562 48.4488 37.079 47.7922 36.758 47.1428L36.1816 45.9536L36.7726 45.5086C37.0936 45.2605 37.6189 44.8301 37.9399 44.5455C38.4068 44.1297 38.5017 44.0202 38.4214 43.9473C38.2025 43.743 36.3129 43.1156 35.1018 42.8456C34.7662 42.7654 34.4963 42.6924 34.4963 42.6705C34.5036 42.6486 34.8246 42.3933 35.2186 42.1015C36.3421 41.277 37.4438 40.2994 38.5673 39.1321L39.5887 38.0669L40.1943 38.1544C40.5518 38.2055 41.1354 38.2274 41.6388 38.1982C43.6525 38.1034 45.1773 37.279 46.2352 35.725C46.7823 34.9151 47.4827 33.1204 47.4827 32.5294C47.4827 32.3324 47.4681 32.3178 47.0085 32.2741C45.8047 32.1427 43.9151 32.6243 42.828 33.3392L42.58 33.4998L42.9667 32.741C43.1782 32.3251 43.4993 31.6247 43.6889 31.1943L44.0245 30.4063L44.5644 30.224C45.2721 29.9832 46.2352 29.4725 46.8626 29.0056C47.7892 28.3125 48.5333 27.1889 48.8325 26.0362C48.993 25.4015 49.0513 24.0882 48.9492 23.4097C48.8398 22.702 48.5771 21.7973 48.4604 21.7536C48.4166 21.739 48.1612 21.8265 47.9132 21.9579C46.9356 22.4467 46.1184 23.1106 45.5421 23.8693L45.1992 24.3217L45.2502 23.5264C45.2721 23.0887 45.294 22.4394 45.294 22.0892V21.4471L45.7172 21.1772C45.9433 21.0313 46.3738 20.6738 46.6729 20.3893C48.3509 18.7623 48.9273 16.8362 48.3582 14.6913C48.205 14.1076 47.5411 12.663 47.2712 12.3201L47.1325 12.1451L46.8407 12.3493C46.403 12.6485 45.7901 13.3197 45.4107 13.9106C45.0387 14.4797 44.5644 15.4281 44.5644 15.5959C44.5644 15.8367 44.4769 15.5595 44.1632 14.3119L43.8349 12.9914L44.2361 12.4515C44.7176 11.824 45.3086 10.6494 45.491 9.9855C45.5858 9.6426 45.6223 9.23404 45.6223 8.48987C45.6223 7.52683 45.6077 7.43199 45.3961 6.83374C45.2721 6.48354 45.0095 5.94365 44.8198 5.62993C44.4477 5.02438 43.2001 3.71115 42.9958 3.71115C42.9375 3.71115 42.7624 3.90084 42.6165 4.12701C41.9817 5.12653 41.5951 6.29385 41.5075 7.46117L41.4637 8.12508L41.1208 7.59249L40.7706 7.0599V5.98013C40.7706 5.14841 40.7415 4.77633 40.632 4.34588C40.3329 3.20044 39.6325 2.11338 38.7716 1.45676C37.8888 0.800137 36.3932 0.150814 35.4666 0.0267868C35.0945 -0.0242844 35.0872 -0.0169868 35.0289 0.187294C34.9997 0.29673 34.9705 0.865803 34.9778 1.44946C34.9851 2.68245 35.1237 3.32447 35.5833 4.25833C36.24 5.58616 37.4948 6.66593 39.0707 7.25689L39.6252 7.46847L40.1432 8.271C40.435 8.70874 40.6904 9.11002 40.7123 9.15379C40.7415 9.19027 40.4131 9.05165 39.9827 8.84007C39.0342 8.36584 38.2828 8.16886 37.2614 8.11049C36.4442 8.06672 35.5833 8.17616 35.4447 8.34396C35.2915 8.53365 35.9408 10.2117 36.5099 11.0945C37.1811 12.1305 38.1588 12.9695 39.1656 13.3707C39.9681 13.6845 40.5299 13.7866 41.7337 13.8304C42.704 13.8669 42.8864 13.8887 42.9156 13.9909C43.2074 14.9466 43.6598 16.9457 43.8713 18.2443C43.9005 18.4121 43.8276 18.361 43.3752 17.8868C42.6894 17.1645 42.1276 16.7414 41.2959 16.3182C40.5882 15.9534 40.3767 15.9024 40.311 16.0702C40.0775 16.6684 40.0702 19.0687 40.2891 19.8713C40.756 21.5639 41.9161 22.9355 43.8713 24.1028C43.9881 24.1758 43.9954 24.2487 43.9151 25.0002C43.8276 25.8392 43.5576 27.4224 43.3971 27.9987L43.3096 28.3198L43.1491 27.8528C42.7478 26.722 41.8942 25.5109 40.9749 24.7886C40.6393 24.5187 40.6539 24.5041 40.1943 25.3796C39.8003 26.131 39.4866 27.0649 39.3771 27.7872C39.275 28.5167 39.3261 29.6768 39.4939 30.3407C39.6836 31.063 40.2526 32.2011 40.7925 32.9088L41.274 33.5508L40.6247 34.5139C40.2745 35.0465 39.7711 35.7323 39.5158 36.0387L39.0561 36.5932L39.0051 35.7104C38.9321 34.4117 38.6257 33.456 37.9618 32.4565C37.4584 31.6977 37.4948 31.705 36.9112 32.2887C35.6782 33.5508 35.0508 34.9735 34.9559 36.7245C34.8975 37.7897 35.0289 38.7089 35.4082 40.0149C35.452 40.1462 35.3426 40.2702 34.8027 40.7299C34.4379 41.0363 34.1242 41.2843 34.1023 41.2843C34.0804 41.2843 34.0585 40.7955 34.0585 40.19V39.0956L33.847 38.8621L33.6354 38.6214L32.7891 38.5995L31.9428 38.5703V37.2425C31.9428 36.1627 31.9209 35.8855 31.826 35.7541C31.6145 35.4477 31.3518 35.3748 30.4836 35.3748H29.6811V29.8665V24.3582H34.3066H38.9394L39.0853 24.1685C39.2385 23.9788 39.2385 23.9131 39.2385 19.5284C39.2385 15.0779 39.2312 14.8664 38.9905 14.7132C38.9467 14.684 36.8309 14.6548 34.2993 14.6548H29.6811V11.0945V7.54142H30.3596C31.2059 7.54142 31.4029 7.48306 31.578 7.19123L31.899 7.08909V5.5205L29.9729 5.79044H24.5011H19.0293L17.2783 5.5205ZM23.6256 14.6548V11.0945V7.54142H22.378C21.6922 7.54142 21.1158 7.55602 21.1013 7.57061C21.0867 7.5852 21.0721 9.19027 21.0721 11.1309V14.6548H22.3488H23.6256ZM27.8571 14.6548V11.0945V7.54142H26.6169H25.3766V11.0945V14.6548H26.6169H27.8571ZM15.3814 18.3756C15.3814 17.8066 14.9363 17.2448 14.3089 17.0186C13.9441 16.8946 12.9373 16.9019 12.5798 17.0332C12.215 17.1645 11.8065 17.4783 11.8065 17.6169C11.8065 17.792 12.0326 18.0838 12.2442 18.1932C12.4193 18.2881 12.4631 18.2881 12.536 18.1932C12.6892 18.0035 13.2437 17.843 13.6012 17.8868C14.484 17.9817 14.5132 18.9593 13.6231 18.9593C13.2729 18.9593 13.1197 19.1125 13.1197 19.4627C13.1197 19.8056 13.2145 19.8932 13.6742 19.9588C14.039 20.0099 14.36 20.2361 14.36 20.4549C14.36 20.6665 13.9587 21.0021 13.6888 21.0167C13.1999 21.0386 13.003 20.9875 12.6965 20.7759C12.5287 20.6592 12.3463 20.5644 12.2953 20.5644C12.1785 20.5644 11.7335 21.0167 11.7335 21.1334C11.7335 21.3158 12.3026 21.7901 12.6819 21.9141C13.5574 22.2059 14.805 21.8995 15.2063 21.2939C15.5565 20.7613 15.5273 20.1412 15.1187 19.6962C14.8926 19.4408 14.878 19.4043 14.9947 19.3168C15.1698 19.1636 15.3814 18.6675 15.3814 18.3756ZM23.684 18.2224C24.3406 17.3542 24.4646 17.1426 24.3771 17.0624C24.2603 16.9457 23.5964 16.9092 23.4067 17.004C23.3046 17.0551 22.9617 17.4564 22.6407 17.8868L22.057 18.6748L22.0351 17.9306C22.0278 17.5147 21.9767 17.1354 21.933 17.0843C21.8746 17.0113 21.7141 16.9894 21.4077 17.004L20.9626 17.0259V19.4335V21.8411L21.2326 21.9068C21.4004 21.9506 21.5974 21.9506 21.7433 21.9068L21.984 21.8338L22.0205 21.0167C22.0497 20.3163 22.0789 20.185 22.2102 20.0464L22.3634 19.8932L22.8522 20.8781C23.2973 21.7682 23.3629 21.863 23.5672 21.9068C23.8882 21.9724 24.3041 21.9579 24.4208 21.8849C24.5595 21.7973 24.4573 21.5639 23.684 20.1631C23.3702 19.6013 23.1149 19.1052 23.1149 19.0614C23.1149 19.0177 23.3702 18.6383 23.684 18.2224ZM28.521 17.916C28.3095 17.4855 27.9593 17.1937 27.4778 17.0332C26.398 16.683 25.3401 17.1354 25.0191 18.0765C24.8951 18.4632 24.9169 20.4768 25.0483 20.8635C25.2963 21.5639 25.9821 21.987 26.843 21.9797C27.4559 21.9797 27.9228 21.7973 28.2438 21.4471C28.6378 21.0094 28.6961 20.7468 28.6961 19.4335C28.6961 18.3537 28.6816 18.237 28.521 17.916ZM19.591 19.594C19.1971 18.4194 18.8323 17.3542 18.7739 17.2229L18.6718 16.9894H18.0881C17.6066 16.9894 17.4899 17.0113 17.4315 17.1135C17.271 17.4272 15.9577 21.6077 15.9796 21.7536C16.0015 21.8995 16.0526 21.9141 16.4393 21.936C16.68 21.9433 16.9208 21.9214 16.9791 21.8849C17.0302 21.8484 17.1324 21.6441 17.2053 21.4326L17.3439 21.0386H18.1246H18.9052L19.022 21.3815C19.0876 21.5712 19.1825 21.7682 19.2335 21.8192C19.343 21.9287 20.109 21.9214 20.2258 21.8046C20.2841 21.7463 20.1163 21.1626 19.591 19.594ZM30.7025 17.9744C30.7025 17.2229 30.6879 17.1354 30.5639 17.0624C30.4836 17.0259 30.2574 16.9894 30.0532 16.9894C29.7321 16.9894 29.6811 17.0113 29.6446 17.1499C29.6227 17.2448 29.6154 18.3319 29.6227 19.5794L29.6446 21.8411H30.1553H30.666L30.6879 20.8708L30.7098 19.9077H31.3226H31.9428V20.8562V21.8046L32.147 21.8849C32.2711 21.936 32.4608 21.9433 32.6723 21.8995L33.0006 21.8411L33.0225 19.5794C33.0298 18.3319 33.0225 17.2448 33.0006 17.1499C32.9642 16.9967 32.9277 16.9821 32.4754 17.004L31.9865 17.0259L31.9209 17.3177C31.8844 17.4783 31.8771 17.8795 31.899 18.2078L31.9355 18.8134H31.3226H30.7025V17.9744ZM35.5906 17.9306C35.5906 17.2229 35.576 17.1354 35.452 17.0624C35.3718 17.0259 34.9632 16.9894 34.5328 16.9894L34.4724 16.9894C34.0263 16.9892 33.829 16.9892 33.7476 17.0863C33.683 17.1633 33.6914 17.3015 33.7065 17.5494L33.7083 17.5804L33.7302 17.9744L34.095 18.0108L34.4598 18.0473L34.4963 19.9442C34.5182 20.9875 34.5473 21.8484 34.5546 21.8557C34.5619 21.8703 35.0289 21.8776 35.5906 21.8776C36.7361 21.8776 36.9914 21.8119 37.3927 21.4253C37.6772 21.148 37.8013 20.8124 37.8013 20.309C37.8013 19.8056 37.6772 19.47 37.3927 19.1928C37.0863 18.9009 36.9185 18.8426 36.1962 18.7769L35.5906 18.7258V17.9306ZM23.6256 35.3748V29.8665V24.3582H22.3999C21.7214 24.3582 21.145 24.38 21.1231 24.4092C21.094 24.4311 21.0721 26.9117 21.0721 29.9175V35.3748H22.3488H23.6256ZM27.8571 35.3748V29.8665V24.3582H26.6169H25.3766V29.8665V35.3748H26.6169H27.8571ZM30.1918 38.5849V37.8918V37.1987H24.5011H18.8104V37.8918V38.5849H24.5011H30.1918ZM32.3075 42.3276V41.3281V40.3359H24.5011H16.6946V41.3208C16.6946 42.1452 16.7092 42.3057 16.8041 42.3057C16.8624 42.3057 17.5628 42.2401 18.358 42.1598C22.5458 41.744 27.7331 41.7877 31.9282 42.2838L32.3075 42.3276Z" fill="#DCA45C"/>
<path fill-rule="evenodd" clip-rule="evenodd" d="M14.3089 17.0186C14.9363 17.2448 15.3814 17.8066 15.3814 18.3756C15.3814 18.6675 15.1698 19.1636 14.9947 19.3168C14.878 19.4043 14.8926 19.4408 15.1187 19.6962C15.5273 20.1412 15.5565 20.7613 15.2063 21.2939C14.805 21.8995 13.5574 22.2059 12.6819 21.9141C12.3026 21.7901 11.7335 21.3158 11.7335 21.1334C11.7335 21.0167 12.1785 20.5644 12.2953 20.5644C12.3463 20.5644 12.5287 20.6592 12.6965 20.7759C13.003 20.9875 13.1999 21.0386 13.6888 21.0167C13.9587 21.0021 14.36 20.6665 14.36 20.4549C14.36 20.2361 14.039 20.0099 13.6742 19.9588C13.2145 19.8932 13.1197 19.8056 13.1197 19.4627C13.1197 19.1125 13.2729 18.9593 13.6231 18.9593C14.5132 18.9593 14.484 17.9817 13.6012 17.8868C13.2437 17.843 12.6892 18.0035 12.536 18.1932C12.4631 18.2881 12.4193 18.2881 12.2442 18.1932C12.0326 18.0838 11.8065 17.792 11.8065 17.6169C11.8065 17.4783 12.215 17.1645 12.5798 17.0332C12.9373 16.9019 13.9441 16.8946 14.3089 17.0186ZM24.3771 17.0624C24.4646 17.1426 24.3406 17.3542 23.684 18.2224C23.3702 18.6383 23.1149 19.0177 23.1149 19.0614C23.1149 19.1052 23.3702 19.6013 23.684 20.1631C24.4573 21.5639 24.5595 21.7973 24.4208 21.8849C24.3041 21.9579 23.8882 21.9724 23.5672 21.9068C23.3629 21.863 23.2973 21.7682 22.8522 20.8781L22.3634 19.8932L22.2102 20.0464C22.0789 20.185 22.0497 20.3163 22.0205 21.0167L21.984 21.8338L21.7433 21.9068C21.5974 21.9506 21.4004 21.9506 21.2326 21.9068L20.9626 21.8411V19.4335V17.0259L21.4077 17.004C21.7141 16.9894 21.8746 17.0113 21.933 17.0843C21.9767 17.1354 22.0278 17.5147 22.0351 17.9306L22.057 18.6748L22.6407 17.8868C22.9617 17.4564 23.3046 17.0551 23.4067 17.004C23.5964 16.9092 24.2603 16.9457 24.3771 17.0624ZM27.4778 17.0332C27.9593 17.1937 28.3095 17.4855 28.521 17.916C28.6816 18.237 28.6961 18.3537 28.6961 19.4335C28.6961 20.7468 28.6378 21.0094 28.2438 21.4471C27.9228 21.7973 27.4559 21.9797 26.843 21.9797C25.9821 21.987 25.2963 21.5639 25.0483 20.8635C24.9169 20.4768 24.8951 18.4632 25.0191 18.0765C25.3401 17.1354 26.398 16.683 27.4778 17.0332ZM18.7739 17.2229C18.8323 17.3542 19.1971 18.4194 19.591 19.594C20.1163 21.1626 20.2841 21.7463 20.2258 21.8046C20.109 21.9214 19.343 21.9287 19.2335 21.8192C19.1825 21.7682 19.0876 21.5712 19.022 21.3815L18.9052 21.0386H18.1246H17.3439L17.2053 21.4326C17.1324 21.6441 17.0302 21.8484 16.9791 21.8849C16.9208 21.9214 16.68 21.9433 16.4393 21.936C16.0526 21.9141 16.0015 21.8995 15.9796 21.7536C15.9577 21.6077 17.271 17.4272 17.4315 17.1135C17.4899 17.0113 17.6066 16.9894 18.0881 16.9894H18.6718L18.7739 17.2229ZM30.5639 17.0624C30.6879 17.1354 30.7025 17.2229 30.7025 17.9744V18.8134H31.3226H31.9355L31.899 18.2078C31.8771 17.8795 31.8844 17.4783 31.9209 17.3177L31.9865 17.0259L32.4754 17.004C32.9277 16.9821 32.9642 16.9967 33.0006 17.1499C33.0225 17.2448 33.0298 18.3319 33.0225 19.5794L33.0006 21.8411L32.6723 21.8995C32.4608 21.9433 32.2711 21.936 32.147 21.8849L31.9428 21.8046V20.8562V19.9077H31.3226H30.7098L30.6879 20.8708L30.666 21.8411H30.1553H29.6446L29.6227 19.5794C29.6154 18.3319 29.6227 17.2448 29.6446 17.1499C29.6811 17.0113 29.7321 16.9894 30.0532 16.9894C30.2574 16.9894 30.4836 17.0259 30.5639 17.0624ZM35.452 17.0624C35.576 17.1354 35.5906 17.2229 35.5906 17.9306V18.7258L36.1962 18.7769C36.9185 18.8426 37.0863 18.9009 37.3927 19.1928C37.6772 19.47 37.8013 19.8056 37.8013 20.309C37.8013 20.8124 37.6772 21.148 37.3927 21.4253C36.9914 21.8119 36.7361 21.8776 35.5906 21.8776C35.0289 21.8776 34.5619 21.8703 34.5546 21.8557C34.5473 21.8484 34.5182 20.9875 34.4963 19.9442L34.4598 18.0473L34.095 18.0108L33.7302 17.9744L33.7083 17.5804L33.7065 17.5494C33.6914 17.3015 33.683 17.1633 33.7476 17.0863C33.829 16.9892 34.0263 16.9892 34.4724 16.9894L34.5328 16.9894C34.9632 16.9894 35.3718 17.0259 35.452 17.0624Z" fill="#DCA45C"/>
</svg>
