<svg width="56" height="56" viewBox="0 0 56 56" fill="none" xmlns="http://www.w3.org/2000/svg">
<path d="M28.3733 25.3633C28.14 25.34 27.86 25.34 27.6033 25.3633C22.05 25.1767 17.64 20.6267 17.64 15.0267C17.64 9.30999 22.26 4.66666 28 4.66666C33.7167 4.66666 38.36 9.30999 38.36 15.0267C38.3367 20.6267 33.9267 25.1767 28.3733 25.3633Z" stroke="white" stroke-linecap="round" stroke-linejoin="round"/>
<path d="M16.7067 33.9733C11.06 37.7533 11.06 43.9133 16.7067 47.67C23.1233 51.9633 33.6467 51.9633 40.0633 47.67C45.71 43.89 45.71 37.73 40.0633 33.9733C33.67 29.7033 23.1467 29.7033 16.7067 33.9733Z" stroke="white" stroke-linecap="round" stroke-linejoin="round"/>
</svg>
