<svg width="85" height="56" viewBox="0 0 85 56" fill="none" xmlns="http://www.w3.org/2000/svg">
<path d="M39.6834 0H3.20988V31.3837H21.0465C21.0554 31.6803 21.0821 31.9679 21.0821 32.2735C21.0821 43.211 12.3505 51.3176 1.53825 51.3176C1.03143 51.3176 0 51.3176 0 51.3176V54.2385C3.02316 55.3889 8.05583 56 12.5995 56C27.5463 56 39.6656 45.1343 39.6656 30.0177V0H39.6834Z" fill="black" fill-opacity="0.08"/>
<path d="M84.5861 0H48.1214V31.3837H65.9581C65.9669 31.6803 65.9936 31.9679 65.9936 32.2735C65.9936 43.211 57.262 51.3176 46.4498 51.3176C45.943 51.3176 44.9115 51.3176 44.9115 51.3176V54.2385C47.9347 55.3889 52.9674 56 57.511 56C72.4578 56 84.5772 45.1343 84.5772 30.0177V0H84.5861Z" fill="black" fill-opacity="0.08"/>
</svg>
